<svg width="25" height="27" viewBox="0 0 25 27" fill="none" xmlns="http://www.w3.org/2000/svg">
<path d="M7.90129 2.65994C7.48905 2.65994 7.0937 2.82245 6.80221 3.11171C6.51072 3.40098 6.34696 3.79331 6.34696 4.20239C6.34696 4.61147 6.51072 5.0038 6.80221 5.29306C7.0937 5.58233 7.48905 5.74483 7.90129 5.74483C8.31352 5.74483 8.70887 5.58233 9.00037 5.29306C9.29186 5.0038 9.45562 4.61147 9.45562 4.20239C9.45562 3.79331 9.29186 3.40098 9.00037 3.11171C8.70887 2.82245 8.31352 2.65994 7.90129 2.65994ZM3.50253 2.65994C3.82366 1.75679 4.52272 1.41018 5.31055 0.856991C6.09837 0.303802 6.93618 0 7.90129 0C8.86639 0 9.70382 0.303958 10.4916 0.857148C11.2795 1.41034 11.7869 2.14287 12.3 2.65994H23.4446C23.8568 2.65994 24.2522 2.82245 24.5437 3.11171C24.8352 3.40098 24.9989 3.79331 24.9989 4.20239C24.9989 4.61147 24.5996 4.85347 24.3081 5.14273C24.0725 5.14273 23.8568 5.29306 23.4446 5.29306H12.3C11.9789 6.19621 11.2795 7.16098 10.4916 7.71417C9.70382 8.26736 8.86639 8.57132 7.90129 8.57132C6.93618 8.57132 5.99484 8.26736 5.20701 7.71417C4.41918 7.16098 3.93525 6.19621 3.61412 5.29306H1.88085C1.2347 5.29306 0.852886 5.432 0.561392 5.14273C0.269899 4.85347 0.129634 4.61147 0.129634 4.20239C0.129634 3.79331 0.293393 3.40098 0.584887 3.11171C0.876381 2.82245 1.27173 2.65994 1.68396 2.65994H3.50253ZM17.2273 11.9146C16.815 11.9146 16.4197 12.0771 16.1282 12.3664C15.8367 12.6557 15.6729 13.048 15.6729 13.4571C15.6729 13.8661 15.8367 14.2585 16.1282 14.5477C16.4197 14.837 16.815 14.9995 17.2273 14.9995C17.6395 14.9995 18.0349 14.837 18.3263 14.5477C18.6178 14.2585 18.7816 13.8661 18.7816 13.4571C18.7816 13.048 18.6178 12.6557 18.3263 12.3664C18.0349 12.0771 17.6395 11.9146 17.2273 11.9146ZM12.8285 12.3664C13.1496 11.4632 14.0214 10.4102 14.8092 9.85704C15.5971 9.30385 16.4347 8.9999 17.3998 8.9999C18.3649 8.9999 18.7708 9.30385 19.5586 9.85704C20.3464 10.4102 21.3049 11.4632 21.626 12.3664L23.4446 12.4285C23.8568 12.4285 24.4484 12.5678 24.7399 12.8571C25.0314 13.1463 24.9989 13.048 24.9989 13.4571C24.9989 13.8661 24.8352 14.2585 24.5437 14.5477C24.2522 14.837 23.8568 14.9995 23.4446 14.9995H21.626C20.8539 15.8571 20.7094 16.161 19.9216 16.7142C19.1337 17.2674 18.1924 17.5714 17.2273 17.5714C16.2622 17.5714 15.5971 17.2674 14.8092 16.7142C14.0214 16.161 13.1496 15.9027 12.8285 14.9995H1.68396C1.27173 14.9995 0.876381 14.837 0.584887 14.5477C0.293393 14.2585 0.129634 13.8661 0.129634 13.4571C0.129634 13.048 0.269899 12.7178 0.561392 12.4285C0.993151 12.4285 1.27173 12.3664 1.68396 12.3664H12.8285ZM7.90129 21.1693C7.48905 21.1693 7.0937 21.3318 6.80221 21.6211C6.51072 21.9103 6.34696 22.3027 6.34696 22.7117C6.34696 23.1208 6.51072 23.5132 6.80221 23.8024C7.0937 24.0917 7.48905 24.2542 7.90129 24.2542C8.31352 24.2542 8.70887 24.0917 9.00037 23.8024C9.29186 23.5132 9.45562 23.1208 9.45562 22.7117C9.45562 22.3027 9.29186 21.9103 9.00037 21.6211C8.70887 21.3318 8.31352 21.1693 7.90129 21.1693ZM3.50253 21.8571C3.82366 20.954 4.5228 19.8389 5.31063 19.2857C6.09846 18.7325 6.93618 18.4285 7.90129 18.4285C8.86639 18.4285 9.7039 18.7325 10.4917 19.2857C11.2796 19.8389 11.9789 20.954 12.3 21.8571H23.4446C23.8568 21.8571 24.2522 21.7366 24.5437 22.0258C24.8352 22.3151 24.9989 22.3027 24.9989 22.7117C24.9989 23.1208 24.8352 23.5132 24.5437 23.8024C24.2522 24.0917 23.8568 24.2542 23.4446 24.2542H12.3C11.9789 25.1573 11.2795 25.5897 10.4916 26.1429C9.70382 26.696 8.86631 27 7.90121 27C6.9361 27 6.09846 26.696 5.31063 26.1429C4.5228 25.5897 3.82366 25.1573 3.50253 24.2542H1.68396C1.27173 24.2542 0.876381 24.0917 0.584887 23.8024C0.293393 23.5132 0.129634 23.1208 0.129634 22.7117C0.129634 22.3027 -0.161969 22.575 0.129524 22.2857C0.421018 21.9964 1.01268 21.8571 1.42491 21.8571H3.50253Z" fill="white" fill-opacity="0.5"/>
</svg>
