<svg width="27" height="27" viewBox="0 0 27 27" fill="none" xmlns="http://www.w3.org/2000/svg">
<path d="M24.392 26.5775L15.8011 17.9744C15.0341 18.5889 14.152 19.0754 13.1548 19.4339C12.1577 19.7923 11.0966 19.9715 9.97159 19.9715C7.18466 19.9715 4.82625 19.0047 2.89636 17.0711C0.966477 15.1374 0.00102273 12.7756 0 9.98577C0 7.19488 0.965454 4.83312 2.89636 2.90048C4.82727 0.967852 7.18568 0.00102418 9.97159 0C12.7585 0 15.1169 0.966828 17.0468 2.90048C18.9767 4.83414 19.9422 7.1959 19.9432 9.98577C19.9432 11.1124 19.7642 12.175 19.4062 13.1735C19.0483 14.1721 18.5625 15.0555 17.9489 15.8236L26.5781 24.4651C26.8594 24.7468 27 25.0925 27 25.5021C27 25.9118 26.8466 26.2703 26.5398 26.5775C26.2585 26.8592 25.9006 27 25.4659 27C25.0312 27 24.6733 26.8592 24.392 26.5775ZM9.97159 16.899C11.8892 16.899 13.5194 16.2266 14.8623 14.8819C16.2051 13.5371 16.876 11.9051 16.875 9.98577C16.875 8.06543 16.2036 6.43289 14.8607 5.08814C13.5179 3.74338 11.8882 3.07152 9.97159 3.07255C8.05398 3.07255 6.42375 3.74492 5.08091 5.08967C3.73807 6.43442 3.06716 8.06646 3.06818 9.98577C3.06818 11.9061 3.7396 13.5387 5.08244 14.8834C6.42528 16.2282 8.055 16.9 9.97159 16.899Z" fill="white" fill-opacity="0.5"/>
</svg>
