<svg width="71" height="71" viewBox="0 0 71 71" fill="none" xmlns="http://www.w3.org/2000/svg">
<rect width="71" height="71" rx="35.5" fill="white" fill-opacity="0.9"/>
<path d="M39.82 16.3385L35.66 19.8049H40C44.2435 19.8049 48.3131 21.2028 51.3137 23.6911C54.3143 26.1794 56 29.5542 56 33.0732H52C52 30.4339 50.7357 27.9028 48.4853 26.0366C46.2348 24.1704 43.1826 23.122 40 23.122H35.66L39.84 26.5883L37 28.9268L28 21.4634L30.82 19.1249L37 14L39.82 16.3385ZM16 31.4146V48H48V31.4146H16ZM20 42.2946V37.1366C21.2022 36.5575 22.2017 35.7287 22.9 34.7317H41.1C41.7983 35.7287 42.7978 36.5575 44 37.1366V42.2946C42.8147 42.8734 41.8296 43.696 41.14 44.6829H22.9C22.1993 43.6918 21.1999 42.8688 20 42.2946ZM32 43.0244C33.656 43.0244 35 41.54 35 39.7073C35 37.8746 33.656 36.3902 32 36.3902C30.344 36.3902 29 37.8746 29 39.7073C29 41.54 30.344 43.0244 32 43.0244Z" fill="#00E124"/>
</svg>

