<svg width="71" height="71" viewBox="0 0 71 71" fill="none" xmlns="http://www.w3.org/2000/svg">
<rect width="71" height="71" rx="35.5" fill="white" fill-opacity="0.9"/>
<path d="M40.7956 27.4091L43.9494 34.0909H27.9806L30.815 27.4091H40.7956ZM29.9767 36C28.8788 36 27.9806 36.8591 27.9806 37.9091C27.9806 38.9591 28.8788 39.8182 29.9767 39.8182C31.0745 39.8182 31.9728 38.9591 31.9728 37.9091C31.9728 36.8591 31.0745 36 29.9767 36ZM41.9533 36C40.8555 36 39.9572 36.8591 39.9572 37.9091C39.9572 38.9591 40.8555 39.8182 41.9533 39.8182C43.0512 39.8182 43.9494 38.9591 43.9494 37.9091C43.9494 36.8591 43.0512 36 41.9533 36ZM53.93 22.6364V34.0909C53.93 44.6864 46.2649 54.5945 35.965 57C25.6651 54.5945 18 44.6864 18 34.0909V22.6364L35.965 15L53.93 22.6364ZM47.9417 36L43.6301 26.4545C43.2308 25.3473 42.113 24.5455 40.7956 24.5455H30.815C29.4976 24.5455 28.3798 25.3473 27.9806 26.4545L23.9883 36V43.6364C23.9883 44.6864 24.8866 45.5455 25.9844 45.5455H27.9806C29.0784 45.5455 29.9767 44.6864 29.9767 43.6364V41.7273H41.9533V43.6364C41.9533 44.6864 42.8516 45.5455 43.9494 45.5455H45.9456C47.0434 45.5455 47.9417 44.6864 47.9417 43.6364V36Z" fill="#00E124"/>
</svg>
