<svg width="71" height="71" viewBox="0 0 71 71" fill="none" xmlns="http://www.w3.org/2000/svg">
<rect width="71" height="71" rx="35.5" fill="white" fill-opacity="0.9"/>
<path d="M50.3963 39.8932C50.3936 40.2807 50.2386 40.6515 49.9646 40.9255C49.6906 41.1995 49.3198 41.3545 48.9323 41.3572H43.0299C42.6424 41.355 42.2713 41.2 41.9972 40.926C41.7231 40.6519 41.5682 40.2808 41.566 39.8932C41.5686 39.5057 41.7237 39.1349 41.9977 38.8609C42.2716 38.5869 42.6425 38.4319 43.0299 38.4293H48.9323C49.3195 38.4327 49.6898 38.5881 49.9636 38.8619C50.2374 39.1357 50.3928 39.506 50.3963 39.8932ZM29.8078 39.8932C29.8057 40.2808 29.6507 40.6519 29.3766 40.926C29.1026 41.2 28.7315 41.355 28.3439 41.3572H22.4415C22.0539 41.355 21.6828 41.2 21.4088 40.926C21.1347 40.6519 20.9798 40.2808 20.9776 39.8932C20.9802 39.5057 21.1353 39.1349 21.4093 38.8609C21.6832 38.5869 22.0541 38.4319 22.4415 38.4293H28.3439C28.7311 38.4323 29.1015 38.5876 29.3751 38.8615C29.6487 39.1354 29.8036 39.506 29.8062 39.8932H29.8078ZM26.7469 26.3068H45.7183L48.0456 32.2324C48.009 32.2324 47.9724 32.2258 47.9308 32.2258H24.4179L26.7469 26.3068ZM56.1589 30.8084C56.0626 30.2306 55.7412 29.7145 55.265 29.3733C54.7888 29.0321 54.1967 28.8937 53.6186 28.9885L53.6319 28.9868L50.0003 29.579C49.9471 29.5891 49.8948 29.6035 49.8439 29.6223L49.8523 29.619L47.5133 23.6667H24.9452L22.6062 29.619C22.559 29.6027 22.5106 29.5899 22.4615 29.5807L18.8266 28.9868C18.2521 28.8966 17.6652 29.0358 17.1925 29.3744C16.7198 29.713 16.3991 30.2239 16.2996 30.7968L16.2979 30.8101C16.2073 31.3846 16.3463 31.9717 16.685 32.4445C17.0237 32.9174 17.5348 33.238 18.1079 33.3371L18.1212 33.3387L20.2356 33.6864C18.8934 34.9748 18.1158 36.7422 18.073 38.6023V48.7351H25.3927V44.9089H46.0693V48.7351H53.389V43.3318C53.419 43.2054 53.4356 43.0607 53.4356 42.9109V38.6089C53.3952 36.8157 52.6737 35.1051 51.4177 33.8245L51.4194 33.8261L54.3572 33.3437C54.9347 33.2471 55.4502 32.9254 55.7908 32.4492C56.1313 31.973 56.2691 31.3811 56.1739 30.8034L56.1755 30.8167L56.1589 30.8084Z" fill="#00E124"/>
</svg>
