<svg width="71" height="71" viewBox="0 0 71 71" fill="none" xmlns="http://www.w3.org/2000/svg">
<rect width="71" height="71" rx="35.5" fill="white" fill-opacity="0.9"/>
<path d="M52.3 29.4078C53.2627 29.4078 54.186 29.7813 54.8668 30.4463C55.5476 31.1112 55.93 32.0131 55.93 32.9534V40.0447C55.93 40.985 55.5476 41.8869 54.8668 42.5518C54.186 43.2167 53.2627 43.5903 52.3 43.5903H50.3725C49.93 47.0177 48.2222 50.1695 45.5695 52.4544C42.9169 54.7392 39.5017 55.9999 35.965 56V52.4544C38.8532 52.4544 41.6231 51.3337 43.6654 49.3389C45.7077 47.3441 46.855 44.6386 46.855 41.8175V31.1806C46.855 28.3595 45.7077 25.654 43.6654 23.6592C41.6231 21.6644 38.8532 20.5437 35.965 20.5437C33.0768 20.5437 30.3069 21.6644 28.2646 23.6592C26.2223 25.654 25.075 28.3595 25.075 31.1806V43.5903H19.63C18.6673 43.5903 17.744 43.2167 17.0632 42.5518C16.3824 41.8869 16 40.985 16 40.0447V32.9534C16 32.0131 16.3824 31.1112 17.0632 30.4463C17.744 29.7813 18.6673 29.4078 19.63 29.4078H21.5575C22.0004 25.9808 23.7085 22.8294 26.3611 20.5449C29.0137 18.2605 32.4286 17 35.965 17C39.5014 17 42.9163 18.2605 45.5689 20.5449C48.2215 22.8294 49.9296 25.9808 50.3725 29.4078H52.3ZM28.2694 43.2091L30.1933 40.2025C31.9231 41.2609 33.9238 41.8207 35.965 41.8175C38.0062 41.8207 40.0069 41.2609 41.7367 40.2025L43.6606 43.2091C41.3542 44.6206 38.6867 45.3672 35.965 45.3631C33.2433 45.3672 30.5758 44.6206 28.2694 43.2091Z" fill="#00E124"/>
</svg>
