<svg width="239" height="54" viewBox="0 0 239 54" fill="none" xmlns="http://www.w3.org/2000/svg">
<path d="M2.80267 12.6122V25.2242H12.612H22.4214V22.7719V20.3896L15.9753 20.1794L9.45903 19.9692V17.5169V15.0645L14.9242 14.8543L20.3194 14.6441V12.2618V9.8095H14.644H9.03863L9.24883 7.49729L9.45903 5.25515L15.6249 5.04495L21.7207 4.83475V2.45247V0.000131667H12.2617H2.80267V12.6122Z" fill="white"/>
<path d="M30.1288 12.6122V25.2242H39.5878H49.0468V22.7719V20.3896L42.951 20.1794L36.7851 19.9692L36.5749 9.94963L36.3647 0.000131667H33.2818H30.1288V12.6122Z" fill="white"/>
<path d="M55.3528 12.6122V25.2242H58.5059H61.6589V12.6122V0.000131667H58.5059H55.3528V12.6122Z" fill="white"/>
<path d="M67.9649 2.38241V4.83475L71.6785 5.04495L75.3219 5.25515L75.5321 15.2046L75.7423 25.2242H79.1756H82.6089L82.8191 15.2046L83.0293 5.25515L86.7428 5.04495L90.3863 4.83475V2.38241V0.000131667H79.1756H67.9649V2.38241Z" fill="white"/>
<path d="M96.6923 12.6122V25.2242H106.502H116.311V22.7719V20.3896L109.865 20.1794L103.349 19.9692V17.5169V15.0645L108.814 14.8543L114.209 14.6441V12.2618V9.8095H108.534H102.928L103.138 7.49729L103.349 5.25515L109.515 5.04495L115.61 4.83475V2.45247V0.000131667H106.151H96.6923V12.6122Z" fill="white"/>
<path d="M137.331 12.6122V25.2242H140.764H144.268L144.478 21.861C144.688 18.8481 144.828 18.5679 146.44 18.5679C147.701 18.5679 148.822 19.4787 150.644 21.861C153.026 25.1541 153.166 25.2242 156.81 25.2242H160.523L157.651 21.3705C154.988 17.7271 154.918 17.5169 156.249 16.8162C159.472 15.0645 160.733 8.89863 158.631 4.83475C156.88 1.40147 152.956 0.000131607 144.548 0.000131607H137.331V12.6122ZM151.835 6.44629C152.325 6.86669 152.746 8.19796 152.746 9.52923C152.746 12.3319 151.274 13.3128 147.211 13.3128H144.338V9.5993C144.338 7.49729 144.548 5.60548 144.898 5.32522C145.529 4.62455 150.644 5.46535 151.835 6.44629Z" fill="white"/>
<path d="M167.46 12.6122V25.2242H170.613H173.766V12.6122V0.000131667H170.613H167.46V12.6122Z" fill="white"/>
<path d="M182.875 12.6122V25.2242H189.741C197.659 25.2242 200.952 24.4535 203.895 21.9311C206.908 19.4087 208.099 16.7461 208.099 12.6122C208.099 8.47823 206.908 5.81568 203.895 3.29328C200.952 0.770867 197.659 0.000131667 189.741 0.000131667H182.875V12.6122ZM198.78 6.72655C202.143 8.89863 202.073 16.3958 198.71 18.5679C197.799 19.1985 195.417 19.6889 193.315 19.8291L189.531 19.9692L189.321 13.3829C189.041 4.62455 189.041 4.62455 193.595 5.18508C195.557 5.46535 197.939 6.16602 198.78 6.72655Z" fill="white"/>
<path d="M215.806 12.6122V25.2242H225.615H235.425V22.7719V20.3896L228.979 20.1794L222.462 19.9692V17.5169V15.0645L227.928 14.8543L233.323 14.6441V12.2618V9.8095H227.647H222.042L222.252 7.49729L222.462 5.25515L228.628 5.04495L234.724 4.83475V2.45247V0.000131667H225.265H215.806V12.6122Z" fill="white"/>
<path d="M0 48.3463V52.5503H66.2132H132.426V48.3463V44.1423H66.2132H0V48.3463Z" fill="white"/>
<path d="M143.852 51.5171L143.852 51.5172L143.85 51.5183C142.575 52.101 141.254 52.0135 140.248 51.4318C139.239 50.8491 138.557 49.7757 138.557 48.4163C138.557 47.1277 139.056 45.9287 139.906 45.4624C141.427 44.5223 143.038 44.5168 144.359 45.3242L144.359 45.3239L144.368 45.3302C144.459 45.3941 144.538 45.4551 144.6 45.5133C144.661 45.5698 144.716 45.632 144.749 45.6996C144.785 45.7706 144.805 45.8649 144.76 45.9598C144.719 46.0462 144.641 46.0953 144.574 46.1245C144.441 46.1824 144.239 46.2089 143.99 46.2198C143.734 46.2311 143.404 46.2265 142.999 46.2089L142.998 46.2088C141.629 46.1404 140.603 46.5359 140.063 47.1403C139.794 47.441 139.643 47.7954 139.624 48.1807C139.606 48.5663 139.719 48.9948 140 49.4422C140.513 50.2097 141.489 50.622 142.997 50.5538C143.539 50.5188 143.954 50.4967 144.249 50.4944C144.396 50.4933 144.518 50.4971 144.613 50.5079C144.66 50.5132 144.705 50.5208 144.745 50.5321C144.782 50.5426 144.83 50.5602 144.87 50.5941C144.917 50.6334 144.956 50.6971 144.951 50.7781C144.946 50.8457 144.912 50.8964 144.888 50.9261C144.838 50.986 144.759 51.042 144.675 51.0941C144.499 51.2029 144.219 51.3427 143.852 51.5171Z" fill="white" stroke="white" stroke-width="0.35"/>
<path d="M149.782 47.9971L149.782 47.997L149.785 47.9903C150.207 47.112 150.63 46.301 150.984 45.7079C151.161 45.412 151.323 45.1656 151.461 44.9913C151.53 44.9046 151.598 44.8304 151.662 44.7761C151.717 44.7288 151.803 44.6679 151.905 44.6679C151.965 44.6679 152.016 44.6896 152.052 44.7106C152.09 44.7324 152.125 44.761 152.158 44.7914C152.223 44.8522 152.292 44.9358 152.364 45.0344C152.508 45.2327 152.679 45.514 152.864 45.8539C153.236 46.5344 153.676 47.4674 154.097 48.4861C154.553 49.4675 154.856 50.2487 154.973 50.702C155.003 50.8155 155.023 50.9157 155.029 50.9968C155.032 51.037 155.032 51.0796 155.026 51.1199C155.02 51.1565 155.005 51.2159 154.956 51.2635C154.896 51.3211 154.821 51.3311 154.76 51.3186C154.708 51.308 154.666 51.2815 154.635 51.2589C154.572 51.2124 154.503 51.1386 154.431 51.0481L154.431 51.0481L154.429 51.0462C154.209 50.7628 153.8 50.4798 153.315 50.267C152.832 50.0551 152.295 49.9226 151.835 49.9226C151.375 49.9226 150.857 50.055 150.412 50.265C149.962 50.4773 149.615 50.7549 149.466 51.0237L149.466 51.0237L149.465 51.025C149.315 51.2897 149.188 51.4995 149.083 51.6567C148.981 51.8093 148.892 51.9258 148.817 51.9913C148.797 52.0087 148.773 52.0267 148.746 52.041C148.721 52.0546 148.681 52.0711 148.632 52.0704C148.576 52.0695 148.523 52.046 148.485 52.0048C148.452 51.9687 148.437 51.9281 148.431 51.9004C148.417 51.8464 148.42 51.7862 148.425 51.7343C148.431 51.6782 148.442 51.6128 148.459 51.5401C148.585 50.97 149.047 49.7119 149.782 47.9971ZM152.357 48.7362L152.357 48.7361L152.359 48.7357C152.606 48.6827 152.77 48.6382 152.872 48.5877C152.968 48.5407 152.973 48.5088 152.974 48.4894C152.978 48.4415 152.956 48.3469 152.854 48.1646C152.756 47.9899 152.604 47.7651 152.393 47.467C152.165 47.1504 151.995 46.9221 151.86 46.7716C151.793 46.6965 151.74 46.6474 151.698 46.6175C151.655 46.5874 151.636 46.5856 151.634 46.5855C151.634 46.5855 151.634 46.5855 151.634 46.5855C151.634 46.5855 151.634 46.5854 151.633 46.5858C151.632 46.5864 151.626 46.5888 151.616 46.597C151.594 46.6148 151.563 46.6506 151.523 46.7172C151.441 46.8506 151.351 47.0594 151.227 47.3585C151.09 47.7369 151.013 48.0343 150.993 48.2619C150.973 48.4916 151.013 48.6228 151.076 48.6989C151.138 48.7733 151.252 48.8321 151.469 48.8449C151.685 48.8577 151.977 48.8224 152.357 48.7362Z" fill="white" stroke="white" stroke-width="0.35"/>
<path d="M159.648 48.4925L159.648 48.4925L159.648 48.4899L159.648 48.4897C159.63 47.5989 159.617 46.9178 159.64 46.4017C159.663 45.8908 159.723 45.511 159.87 45.2407C160.028 44.9519 160.275 44.8083 160.604 44.7385C160.92 44.6715 161.335 44.668 161.855 44.668C163.057 44.668 164.057 45.1604 164.629 45.8912C165.204 46.6265 165.338 47.5972 164.808 48.5045L164.804 48.5115L164.8 48.5181C164.649 48.7287 164.532 49.0978 164.481 49.5233C164.43 49.9448 164.448 50.3942 164.546 50.7526L164.546 50.7541C164.633 51.0859 164.697 51.3429 164.727 51.5205C164.741 51.6073 164.751 51.6883 164.746 51.754C164.744 51.7861 164.738 51.83 164.716 51.8724C164.692 51.9208 164.644 51.9712 164.569 51.9862C164.505 51.9991 164.45 51.9793 164.419 51.9644C164.385 51.9482 164.354 51.9261 164.328 51.9043C164.274 51.8603 164.213 51.7976 164.147 51.7223C164.014 51.5712 163.837 51.3449 163.611 51.0503C163.344 50.7513 162.993 50.467 162.634 50.258C162.268 50.0457 161.915 49.9226 161.644 49.9226C161.418 49.9226 161.141 50.0391 160.898 50.2412C160.657 50.4421 160.473 50.7084 160.414 50.9767L160.414 50.9768L160.411 50.9891C160.384 51.0786 160.352 51.1634 160.308 51.2222C160.287 51.2508 160.245 51.2975 160.178 51.3157C160.096 51.3378 160.026 51.3061 159.983 51.2686C159.946 51.2361 159.923 51.1956 159.908 51.1651C159.893 51.1319 159.88 51.0945 159.868 51.0558C159.845 50.9781 159.825 50.8794 159.807 50.7644C159.735 50.3061 159.683 49.5081 159.648 48.4925ZM162.135 48.872C163.037 48.872 163.67 48.5055 163.946 48.0384C164.215 47.583 164.17 46.9859 163.623 46.4381C162.918 45.7331 162.158 45.5425 161.598 45.7112C161.049 45.8769 160.628 46.4088 160.628 47.2953C160.628 47.9969 160.72 48.3675 160.921 48.575C161.119 48.7804 161.469 48.872 162.135 48.872Z" fill="white" stroke="white" stroke-width="0.35"/>
<path d="M175.062 48.4925L175.062 48.4925L175.062 48.4899C175.045 47.5981 175.036 46.9169 175.064 46.4002C175.091 45.8883 175.155 45.5099 175.303 45.2407C175.46 44.954 175.699 44.8094 176.017 44.7389C176.321 44.6715 176.715 44.6679 177.199 44.6679C178.564 44.6679 179.654 45.1169 180.258 45.8241C180.87 46.5416 180.959 47.5 180.363 48.4353C180.164 48.8009 180.014 49.2529 179.938 49.6981C179.862 50.1478 179.865 50.5735 179.959 50.8885L179.96 50.8894L179.961 50.8945C180.047 51.188 180.114 51.4139 180.152 51.5663C180.171 51.6413 180.185 51.7082 180.19 51.7596C180.192 51.7823 180.195 51.8208 180.185 51.86C180.18 51.8804 180.168 51.9162 180.137 51.9489C180.101 51.9871 180.052 52.0071 180.002 52.0071C179.959 52.0071 179.926 51.9927 179.908 51.9833C179.889 51.9731 179.874 51.9614 179.863 51.952C179.841 51.9334 179.82 51.9108 179.802 51.8893C179.765 51.8452 179.719 51.7836 179.667 51.7083C179.563 51.5572 179.417 51.3321 179.226 51.0371L179.225 51.0349C179.032 50.7461 178.721 50.4659 178.364 50.258C178.005 50.0496 177.615 49.9226 177.269 49.9226C176.963 49.9226 176.631 50.0464 176.357 50.2477C176.082 50.4498 175.887 50.7145 175.829 50.9767L175.829 50.9768L175.825 50.9891C175.799 51.0786 175.766 51.1634 175.723 51.2222C175.702 51.2508 175.66 51.2975 175.592 51.3157C175.51 51.3378 175.441 51.3061 175.398 51.2686C175.361 51.2361 175.338 51.1956 175.323 51.1651C175.307 51.1319 175.294 51.0945 175.283 51.0558C175.26 50.9781 175.24 50.8794 175.222 50.7644C175.15 50.3061 175.097 49.5081 175.062 48.4925ZM177.55 48.872C178.451 48.872 179.085 48.5055 179.361 48.0384C179.63 47.583 179.585 46.9859 179.037 46.4381C178.332 45.7331 177.573 45.5424 177.013 45.7112C176.464 45.8769 176.043 46.4088 176.043 47.2953C176.043 47.9969 176.135 48.3675 176.335 48.575C176.534 48.7804 176.884 48.872 177.55 48.872Z" fill="white" stroke="white" stroke-width="0.35"/>
<path d="M184.986 52.0244L184.802 52.0341V51.8496V48.3463V44.8429V44.6585L184.986 44.6682L187.646 44.8082C188.275 44.8257 188.749 44.8388 189.071 44.8531C189.232 44.8603 189.358 44.8678 189.448 44.8767C189.493 44.881 189.533 44.8861 189.565 44.8925C189.581 44.8956 189.599 44.8999 189.617 44.9062C189.629 44.9103 189.666 44.9234 189.699 44.9557C189.717 44.9743 189.742 45.0077 189.75 45.0564C189.758 45.1076 189.743 45.1511 189.725 45.1804C189.696 45.2269 189.653 45.248 189.642 45.2535L189.642 45.2537C189.61 45.2697 189.571 45.2803 189.539 45.288C189.47 45.3048 189.365 45.323 189.232 45.3433C188.964 45.3841 188.555 45.4368 188.015 45.5066L188.014 45.5067C187.325 45.6102 186.771 45.7807 186.394 45.9938C186.011 46.21 185.852 46.4442 185.852 46.6647C185.852 46.8857 185.995 47.1005 186.358 47.2782C186.722 47.4559 187.273 47.5763 187.996 47.6109L190.237 47.6809L190.253 48.0295L188.011 48.3097C187.174 48.4144 186.633 48.5685 186.302 48.7968C186.141 48.9082 186.031 49.0364 185.96 49.1863C185.889 49.3377 185.852 49.5208 185.852 49.7476C185.852 49.9744 185.889 50.1575 185.96 50.3089C186.031 50.4589 186.141 50.587 186.302 50.6984C186.633 50.9267 187.174 51.0809 188.011 51.1855L188.012 51.1856L188.015 51.186C188.555 51.2557 188.964 51.3085 189.232 51.3493C189.365 51.3696 189.47 51.3877 189.539 51.4046C189.571 51.4123 189.61 51.4229 189.642 51.4389L189.642 51.4391C189.653 51.4446 189.696 51.4657 189.725 51.5122C189.743 51.5415 189.758 51.585 189.75 51.6362C189.742 51.6849 189.717 51.7183 189.699 51.7369C189.666 51.7692 189.629 51.7822 189.617 51.7864C189.599 51.7927 189.581 51.7969 189.565 51.8001C189.533 51.8065 189.493 51.8116 189.448 51.8159C189.358 51.8248 189.232 51.8323 189.071 51.8394C188.749 51.8537 188.275 51.8669 187.646 51.8844L187.646 51.8844L184.986 52.0244Z" fill="white" stroke="white" stroke-width="0.35"/>
<path d="M194.751 48.3497L194.751 48.3495L194.681 44.4958L194.672 43.9821L194.993 44.3833L197.234 47.1851L199.227 49.6138L199.588 47.2687L199.588 47.2687L199.588 47.2673C199.693 46.6206 199.772 46.1351 199.833 45.8291C199.863 45.6791 199.891 45.5604 199.918 45.4864C199.925 45.4671 199.934 45.4459 199.945 45.426C199.953 45.4105 199.974 45.3751 200.012 45.3483C200.034 45.333 200.067 45.3167 200.11 45.3146C200.155 45.3124 200.193 45.3264 200.222 45.3452C200.27 45.377 200.291 45.4223 200.298 45.4384C200.315 45.4786 200.325 45.5279 200.331 45.5709C200.339 45.6185 200.345 45.6772 200.351 45.7456C200.362 45.8828 200.371 46.0689 200.379 46.3038C200.395 46.7683 200.408 47.4335 200.426 48.3099L200.426 48.3428L200.426 48.3431L200.496 52.1968L200.506 52.7105L200.185 52.3093L197.943 49.5074L195.95 47.0787L195.59 49.4239L195.59 49.4239L195.589 49.4253C195.484 50.072 195.405 50.5575 195.344 50.8635C195.314 51.0135 195.287 51.1322 195.26 51.2062C195.253 51.2254 195.244 51.2466 195.233 51.2666C195.224 51.2821 195.204 51.3175 195.165 51.3443C195.143 51.3595 195.11 51.3758 195.067 51.3779C195.023 51.3801 194.984 51.3662 194.956 51.3473C194.908 51.3156 194.887 51.2702 194.88 51.2541C194.862 51.214 194.853 51.1647 194.846 51.1216C194.839 51.074 194.832 51.0154 194.827 50.9469C194.816 50.8097 194.807 50.6237 194.798 50.3887C194.782 49.9242 194.769 49.259 194.752 48.3825L194.751 48.3497Z" fill="white" stroke="white" stroke-width="0.35"/>
<path d="M205.548 45.0975C205.547 45.0967 205.546 45.0963 205.546 45.0963C205.546 45.0963 205.547 45.0967 205.548 45.0975ZM209.43 45.1135C209.43 45.1135 209.429 45.1137 209.429 45.1143L209.43 45.1135ZM205.542 45.3404C205.54 45.3414 205.54 45.3413 205.543 45.3398L205.542 45.3404ZM207.993 52.2074L207.644 52.2111L207.434 48.9191C207.328 47.5491 207.189 46.7618 206.937 46.2819C206.814 46.0488 206.666 45.8908 206.48 45.7737C206.292 45.6551 206.057 45.5732 205.753 45.5052C205.647 45.4874 205.559 45.4688 205.493 45.4488C205.459 45.4388 205.426 45.4271 205.397 45.4131C205.372 45.4012 205.33 45.3783 205.298 45.337C205.281 45.3138 205.262 45.2795 205.258 45.2352C205.253 45.1892 205.266 45.1485 205.284 45.1173C205.316 45.0637 205.365 45.0372 205.388 45.0259C205.442 44.9996 205.514 44.982 205.589 44.9685C205.895 44.9129 206.521 44.8782 207.395 44.8781C208.27 44.8432 208.931 44.86 209.298 44.9151C209.39 44.9289 209.472 44.9462 209.536 44.9687C209.568 44.9799 209.602 44.9945 209.633 45.0145C209.661 45.0332 209.703 45.0671 209.727 45.1232C209.755 45.1891 209.745 45.256 209.716 45.3079C209.692 45.3523 209.656 45.3823 209.629 45.4014C209.574 45.4402 209.498 45.4717 209.415 45.4994L209.406 45.5025L209.397 45.5045C209.176 45.5517 209.005 45.6358 208.865 45.7643C208.725 45.8939 208.606 46.0781 208.508 46.3407C208.308 46.873 208.204 47.6883 208.133 48.9155L207.993 52.2074Z" fill="white" stroke="white" stroke-width="0.35"/>
<path d="M214.945 47.9971L214.944 47.997L214.948 47.9903C215.369 47.112 215.792 46.301 216.146 45.7079C216.323 45.412 216.485 45.1656 216.624 44.9913C216.693 44.9046 216.76 44.8304 216.824 44.7761C216.879 44.7288 216.965 44.6679 217.067 44.6679C217.127 44.6679 217.178 44.6896 217.214 44.7106C217.252 44.7324 217.288 44.761 217.32 44.7914C217.385 44.8522 217.454 44.9358 217.526 45.0344C217.671 45.2327 217.841 45.514 218.027 45.8539C218.398 46.5344 218.838 47.4674 219.259 48.4861C219.715 49.4675 220.018 50.2487 220.136 50.702C220.165 50.8155 220.185 50.9157 220.191 50.9968C220.194 51.037 220.195 51.0796 220.188 51.1199C220.182 51.1565 220.167 51.2159 220.118 51.2635C220.058 51.3211 219.983 51.3311 219.923 51.3186C219.871 51.308 219.828 51.2815 219.797 51.2589C219.734 51.2124 219.666 51.1386 219.593 51.0481L219.593 51.0481L219.592 51.0462C219.371 50.7628 218.962 50.4798 218.477 50.267C217.994 50.0551 217.458 49.9226 216.997 49.9226C216.537 49.9226 216.019 50.055 215.574 50.265C215.124 50.4773 214.777 50.7549 214.628 51.0237L214.628 51.0237L214.627 51.025C214.477 51.2897 214.35 51.4995 214.245 51.6567C214.143 51.8093 214.054 51.9258 213.979 51.9913C213.959 52.0087 213.935 52.0267 213.909 52.041C213.883 52.0546 213.843 52.0711 213.794 52.0704C213.738 52.0695 213.685 52.046 213.647 52.0048C213.614 51.9687 213.6 51.9281 213.593 51.9004C213.58 51.8464 213.582 51.7862 213.587 51.7343C213.593 51.6782 213.605 51.6128 213.621 51.5401C213.747 50.97 214.21 49.7119 214.945 47.9971ZM217.519 48.7362L217.519 48.7361L217.521 48.7357C217.768 48.6827 217.932 48.6382 218.035 48.5877C218.13 48.5407 218.135 48.5088 218.137 48.4894C218.141 48.4415 218.118 48.3469 218.016 48.1646C217.918 47.9899 217.766 47.7651 217.555 47.467C217.327 47.1504 217.157 46.9221 217.022 46.7716C216.955 46.6965 216.902 46.6474 216.86 46.6175C216.818 46.5874 216.798 46.5856 216.797 46.5855C216.796 46.5855 216.796 46.5855 216.796 46.5855C216.796 46.5855 216.796 46.5854 216.795 46.5858C216.794 46.5864 216.788 46.5888 216.778 46.597C216.756 46.6148 216.725 46.6506 216.685 46.7172C216.604 46.8506 216.513 47.0594 216.39 47.3585C216.252 47.7369 216.175 48.0343 216.156 48.2619C216.135 48.4916 216.176 48.6228 216.239 48.6989C216.3 48.7733 216.414 48.8321 216.631 48.8449C216.847 48.8577 217.139 48.8224 217.519 48.7362Z" fill="white" stroke="white" stroke-width="0.35"/>
<path d="M224.88 48.1295L224.88 48.1294L225.02 44.4859L225.37 44.4815L225.58 47.7719C225.65 48.5062 225.715 49.0718 225.798 49.5136C225.882 49.957 225.983 50.2614 226.115 50.4801C226.368 50.8969 226.765 51.0464 227.606 51.1866L227.611 51.1873C228.027 51.2568 228.345 51.3097 228.553 51.3519C228.655 51.3727 228.74 51.3927 228.799 51.4131C228.824 51.4218 228.865 51.4374 228.899 51.4651C228.916 51.4787 228.953 51.5118 228.967 51.5685C228.985 51.6378 228.96 51.6974 228.929 51.734C228.904 51.7644 228.874 51.7807 228.859 51.7884C228.841 51.7973 228.823 51.8036 228.808 51.8083C228.777 51.8176 228.741 51.825 228.703 51.8314C228.627 51.8443 228.522 51.8563 228.392 51.8684C228.13 51.8927 227.747 51.9191 227.242 51.9539L227.239 51.9542L227.239 51.9543L227.232 51.9545L224.92 52.0246L224.733 52.0302L224.74 51.843L224.88 48.1295Z" fill="white" stroke="white" stroke-width="0.35"/>
<path d="M232.9 50.885C232.9 50.885 232.902 50.8849 232.904 50.8844C232.901 50.8847 232.9 50.8849 232.9 50.885ZM232.979 50.6342C232.979 50.6342 232.98 50.6349 232.981 50.6362C232.98 50.6349 232.979 50.6342 232.979 50.6342ZM234.474 50.7663L234.474 50.7664C235.268 50.9045 235.88 50.9104 236.304 50.8303C236.74 50.7479 236.922 50.5879 236.966 50.4483C237.009 50.3115 236.953 50.0852 236.638 49.7843C236.332 49.4917 235.82 49.1691 235.078 48.8583C234.393 48.5773 233.853 48.3283 233.453 48.0907C233.055 47.8552 232.772 47.6187 232.626 47.3532C232.472 47.0725 232.484 46.7831 232.621 46.4854C232.753 46.1985 233.003 45.8957 233.339 45.56C233.867 45.032 234.683 44.7402 235.432 44.6946C235.808 44.6716 236.178 44.71 236.495 44.8186C236.81 44.9262 237.084 45.1068 237.252 45.3755C237.289 45.4276 237.319 45.4917 237.322 45.5653C237.325 45.6466 237.294 45.7169 237.246 45.7705C237.161 45.8658 237.023 45.9114 236.892 45.9349C236.616 45.9842 236.206 45.9624 235.739 45.8551C235.109 45.7363 234.692 45.7868 234.453 45.9095C234.336 45.9694 234.264 46.045 234.224 46.1262C234.183 46.2077 234.168 46.3077 234.187 46.4265C234.227 46.6693 234.408 46.9773 234.758 47.2868C235.105 47.5933 235.605 47.8892 236.252 48.1107L236.252 48.1107C236.823 48.3067 237.272 48.529 237.592 48.7787C237.912 49.0287 238.116 49.3168 238.164 49.6433C238.212 49.9706 238.099 50.2989 237.863 50.617C237.629 50.934 237.265 51.2537 236.783 51.5748L236.783 51.5749L236.78 51.5769C235.936 52.1142 234.954 52.0196 233.807 51.4464L233.803 51.4445C233.439 51.2715 233.161 51.1389 232.982 51.0441C232.895 50.9976 232.82 50.9545 232.771 50.9162C232.751 50.9007 232.711 50.8683 232.687 50.8202C232.673 50.7924 232.657 50.7437 232.672 50.6858C232.688 50.6261 232.727 50.59 232.757 50.5714C232.806 50.5408 232.861 50.5364 232.886 50.5348C232.919 50.5327 232.957 50.5337 232.997 50.5363C233.078 50.5416 233.185 50.5547 233.317 50.574C233.582 50.6127 233.965 50.6786 234.47 50.7658L234.474 50.7663Z" fill="white" stroke="white" stroke-width="0.35"/>
</svg>
