<svg width="203" height="64" viewBox="0 0 203 64" fill="none" xmlns="http://www.w3.org/2000/svg">
<path d="M86.9738 42.1105C84.6132 42.1105 82.8142 41.4919 81.5771 40.2547C80.3541 39.0175 79.7426 37.1119 79.7426 34.538C79.7426 32.86 80.027 31.4592 80.5958 30.3358C81.1647 29.2124 82.0037 28.3734 83.1129 27.8188C84.2221 27.2499 85.573 26.9655 87.1658 26.9655C88.1612 26.9655 89.0642 27.0722 89.8748 27.2855C90.6854 27.4988 91.3822 27.8259 91.9652 28.2667C92.5625 28.6933 93.0175 29.2337 93.3304 29.8879C93.6575 30.542 93.821 31.317 93.821 32.2129H91.7519C91.7519 31.5872 91.6381 31.0539 91.4106 30.6131C91.1831 30.158 90.856 29.7883 90.4294 29.5039C90.017 29.2195 89.5335 29.0204 88.9789 28.9066C88.4243 28.7786 87.8341 28.7147 87.2084 28.7147C86.3552 28.7147 85.5944 28.8213 84.926 29.0346C84.2576 29.2479 83.6959 29.5821 83.2409 30.0372C82.7858 30.4922 82.4374 31.0753 82.1957 31.7863C81.9539 32.4973 81.833 33.3435 81.833 34.3247V34.7726C81.833 36.0951 82.0321 37.1688 82.4303 37.9936C82.8427 38.8184 83.4328 39.4228 84.2008 39.8067C84.9687 40.1765 85.893 40.3613 86.9738 40.3613C88.0688 40.3613 88.9718 40.212 89.6828 39.9134C90.3938 39.6005 90.92 39.1312 91.2613 38.5055C91.6168 37.8798 91.7946 37.0906 91.7946 36.1378V35.8818H86.6325V34.154H93.8423V41.8545H92.3065L92.0932 39.9987C91.7092 40.4964 91.2542 40.9017 90.728 41.2146C90.2019 41.5274 89.6188 41.7549 88.9789 41.8972C88.3532 42.0394 87.6848 42.1105 86.9738 42.1105ZM101.605 42.1105C100.467 42.1105 99.5071 41.9043 98.7249 41.4919C97.957 41.0652 97.3669 40.4182 96.9545 39.5508C96.5563 38.6833 96.3572 37.5812 96.3572 36.2445C96.3572 34.8935 96.5563 33.7914 96.9545 32.9382C97.3669 32.0707 97.957 31.4308 98.7249 31.0184C99.5071 30.5918 100.467 30.3785 101.605 30.3785C102.742 30.3785 103.695 30.5918 104.463 31.0184C105.245 31.4308 105.835 32.0707 106.233 32.9382C106.632 33.7914 106.831 34.8935 106.831 36.2445C106.831 37.5812 106.632 38.6833 106.233 39.5508C105.835 40.4182 105.245 41.0652 104.463 41.4919C103.695 41.9043 102.742 42.1105 101.605 42.1105ZM101.605 40.532C102.33 40.532 102.934 40.3898 103.418 40.1054C103.901 39.8209 104.264 39.3801 104.506 38.7828C104.762 38.1714 104.89 37.4034 104.89 36.4791V36.0098C104.89 35.0713 104.762 34.3033 104.506 33.7061C104.264 33.1088 103.901 32.668 103.418 32.3836C102.934 32.0992 102.33 31.9569 101.605 31.9569C100.879 31.9569 100.268 32.0992 99.7702 32.3836C99.2867 32.668 98.924 33.1088 98.6823 33.7061C98.4405 34.3033 98.3197 35.0713 98.3197 36.0098V36.4791C98.3197 37.4034 98.4405 38.1714 98.6823 38.7828C98.924 39.3801 99.2867 39.8209 99.7702 40.1054C100.268 40.3898 100.879 40.532 101.605 40.532ZM113.77 42.1105C112.632 42.1105 111.672 41.9043 110.89 41.4919C110.122 41.0652 109.532 40.4182 109.12 39.5508C108.722 38.6833 108.522 37.5812 108.522 36.2445C108.522 34.8935 108.722 33.7914 109.12 32.9382C109.532 32.0707 110.122 31.4308 110.89 31.0184C111.672 30.5918 112.632 30.3785 113.77 30.3785C114.908 30.3785 115.86 30.5918 116.628 31.0184C117.41 31.4308 118.001 32.0707 118.399 32.9382C118.797 33.7914 118.996 34.8935 118.996 36.2445C118.996 37.5812 118.797 38.6833 118.399 39.5508C118.001 40.4182 117.41 41.0652 116.628 41.4919C115.86 41.9043 114.908 42.1105 113.77 42.1105ZM113.77 40.532C114.495 40.532 115.1 40.3898 115.583 40.1054C116.067 39.8209 116.429 39.3801 116.671 38.7828C116.927 38.1714 117.055 37.4034 117.055 36.4791V36.0098C117.055 35.0713 116.927 34.3033 116.671 33.7061C116.429 33.1088 116.067 32.668 115.583 32.3836C115.1 32.0992 114.495 31.9569 113.77 31.9569C113.045 31.9569 112.433 32.0992 111.935 32.3836C111.452 32.668 111.089 33.1088 110.848 33.7061C110.606 34.3033 110.485 35.0713 110.485 36.0098V36.4791C110.485 37.4034 110.606 38.1714 110.848 38.7828C111.089 39.3801 111.452 39.8209 111.935 40.1054C112.433 40.3898 113.045 40.532 113.77 40.532ZM123.226 45.7367C122.686 45.7367 122.188 45.623 121.733 45.3954C121.278 45.1821 120.915 44.8693 120.645 44.4569C120.375 44.0445 120.24 43.5539 120.24 42.985C120.24 42.3593 120.41 41.8403 120.752 41.4279C121.107 41.0155 121.527 40.7097 122.01 40.5106C121.655 40.34 121.377 40.1054 121.178 39.8067C120.979 39.4939 120.88 39.1526 120.88 38.7828C120.88 38.2851 121.058 37.8656 121.413 37.5243C121.783 37.183 122.231 36.9555 122.757 36.8417C122.273 36.5289 121.889 36.1307 121.605 35.6472C121.335 35.1495 121.2 34.602 121.2 34.0047C121.2 33.2937 121.363 32.668 121.69 32.1276C122.032 31.5872 122.544 31.1606 123.226 30.8477C123.923 30.5349 124.769 30.3785 125.765 30.3785C126.22 30.3785 126.646 30.414 127.044 30.4851C127.443 30.542 127.798 30.6415 128.111 30.7837C128.609 30.5562 128.978 30.2647 129.22 29.9092C129.476 29.5537 129.633 29.191 129.689 28.8213H131.545C131.545 29.2479 131.446 29.6532 131.247 30.0372C131.062 30.4069 130.806 30.7198 130.479 30.9757C130.152 31.2175 129.753 31.381 129.284 31.4663C129.64 31.8076 129.903 32.1916 130.073 32.6182C130.258 33.0448 130.351 33.507 130.351 34.0047C130.351 34.7157 130.18 35.3486 129.839 35.9032C129.512 36.4436 129.014 36.8702 128.346 37.183C127.677 37.4959 126.838 37.6523 125.829 37.6523H124.079C123.695 37.6523 123.383 37.7305 123.141 37.8869C122.899 38.0291 122.778 38.2638 122.778 38.5909C122.778 38.8753 122.899 39.1099 123.141 39.2948C123.383 39.4654 123.695 39.5508 124.079 39.5508H128.644C129.469 39.5508 130.144 39.8281 130.671 40.3827C131.197 40.923 131.46 41.6199 131.46 42.4731C131.46 43.0846 131.303 43.6321 130.991 44.1156C130.692 44.6133 130.265 45.0044 129.711 45.2888C129.17 45.5874 128.538 45.7367 127.812 45.7367H123.226ZM123.759 44.3075H127.791C128.118 44.3075 128.417 44.2364 128.687 44.0942C128.957 43.9663 129.17 43.7814 129.327 43.5396C129.483 43.2979 129.561 43.0348 129.561 42.7504C129.561 42.2669 129.419 41.8829 129.135 41.5985C128.85 41.3141 128.495 41.1719 128.068 41.1719H123.759C123.304 41.1719 122.92 41.3283 122.608 41.6412C122.295 41.9398 122.138 42.3096 122.138 42.7504C122.138 43.2197 122.295 43.5965 122.608 43.8809C122.92 44.1653 123.304 44.3075 123.759 44.3075ZM125.786 36.2445C126.696 36.2445 127.371 36.0454 127.812 35.6472C128.253 35.249 128.474 34.7015 128.474 34.0047C128.474 33.3221 128.253 32.7817 127.812 32.3836C127.371 31.9854 126.696 31.7863 125.786 31.7863C124.876 31.7863 124.193 31.9854 123.738 32.3836C123.297 32.7817 123.077 33.3221 123.077 34.0047C123.077 34.4456 123.176 34.8366 123.375 35.1779C123.575 35.5192 123.873 35.7823 124.271 35.9672C124.67 36.152 125.174 36.2445 125.786 36.2445ZM133.181 41.8545V26.4322H135.058V41.8545H133.181ZM142.451 42.1105C141.342 42.1105 140.403 41.9043 139.635 41.4919C138.882 41.0652 138.306 40.4182 137.908 39.5508C137.524 38.6833 137.332 37.5812 137.332 36.2445C137.332 34.8935 137.524 33.7914 137.908 32.9382C138.306 32.0707 138.889 31.4308 139.657 31.0184C140.425 30.5918 141.385 30.3785 142.536 30.3785C143.589 30.3785 144.47 30.5847 145.181 30.9971C145.893 31.3952 146.426 31.9996 146.781 32.8102C147.151 33.6065 147.336 34.6091 147.336 35.8178V36.7137H139.273C139.301 37.6096 139.429 38.3491 139.657 38.9322C139.899 39.501 140.254 39.9205 140.723 40.1907C141.193 40.4467 141.783 40.5746 142.494 40.5746C142.977 40.5746 143.397 40.5178 143.752 40.404C144.122 40.276 144.428 40.0982 144.67 39.8707C144.926 39.6432 145.118 39.373 145.245 39.0601C145.373 38.7473 145.445 38.406 145.459 38.0363H147.293C147.279 38.6335 147.165 39.1881 146.952 39.7001C146.739 40.1978 146.426 40.6244 146.013 40.9799C145.601 41.3354 145.096 41.6127 144.499 41.8118C143.902 42.0109 143.219 42.1105 142.451 42.1105ZM139.315 35.3059H145.395C145.395 34.6802 145.324 34.154 145.181 33.7274C145.039 33.3008 144.833 32.9524 144.563 32.6822C144.307 32.412 144.001 32.22 143.646 32.1063C143.304 31.9783 142.913 31.9143 142.472 31.9143C141.818 31.9143 141.264 32.0352 140.809 32.2769C140.354 32.5187 140.005 32.8884 139.763 33.3861C139.522 33.8838 139.372 34.5238 139.315 35.3059ZM154.116 45.5447V30.6344H155.609L155.801 32.2343H155.95C156.334 31.6085 156.825 31.1464 157.422 30.8477C158.019 30.5349 158.695 30.3785 159.448 30.3785C160.387 30.3785 161.183 30.5847 161.837 30.9971C162.492 31.4095 162.996 32.0565 163.352 32.9382C163.707 33.8056 163.885 34.9362 163.885 36.3298C163.885 37.6381 163.7 38.726 163.331 39.5934C162.975 40.4467 162.47 41.0795 161.816 41.4919C161.162 41.9043 160.401 42.1105 159.534 42.1105C159.05 42.1105 158.595 42.0536 158.169 41.9398C157.742 41.8261 157.358 41.6483 157.017 41.4065C156.675 41.1506 156.377 40.8306 156.121 40.4467H155.993V45.5447H154.116ZM158.936 40.468C159.633 40.468 160.202 40.3329 160.643 40.0627C161.084 39.7783 161.411 39.3446 161.624 38.7615C161.837 38.1642 161.944 37.4034 161.944 36.4791V36.0312C161.944 35.0499 161.83 34.2678 161.603 33.6848C161.375 33.0875 161.041 32.6609 160.6 32.4049C160.174 32.1489 159.64 32.0209 159 32.0209C158.304 32.0209 157.728 32.1774 157.273 32.4902C156.832 32.7889 156.505 33.2439 156.291 33.8554C156.092 34.4669 155.993 35.2135 155.993 36.0951V36.4151C155.993 37.1972 156.064 37.8514 156.206 38.3776C156.363 38.8895 156.576 39.3019 156.846 39.6147C157.13 39.9276 157.45 40.148 157.806 40.276C158.161 40.404 158.538 40.468 158.936 40.468ZM166.218 41.8545V26.4322H168.096V41.8545H166.218ZM173.825 42.1105C173.413 42.1105 173 42.0607 172.588 41.9611C172.176 41.8616 171.792 41.6981 171.436 41.4705C171.081 41.243 170.796 40.9302 170.583 40.532C170.37 40.1196 170.263 39.6076 170.263 38.9962C170.263 38.2282 170.448 37.5954 170.818 37.0977C171.187 36.6 171.699 36.216 172.353 35.9458C173.022 35.6614 173.811 35.4694 174.721 35.3699C175.631 35.2561 176.62 35.1992 177.686 35.1992V33.9194C177.686 33.507 177.615 33.1515 177.473 32.8528C177.331 32.5542 177.075 32.3267 176.705 32.1703C176.349 31.9996 175.837 31.9143 175.169 31.9143C174.529 31.9143 174.017 31.9996 173.633 32.1703C173.264 32.3267 173 32.5329 172.844 32.7889C172.702 33.0448 172.631 33.3292 172.631 33.6421V33.9621H170.818C170.803 33.891 170.796 33.8198 170.796 33.7487C170.796 33.6776 170.796 33.5923 170.796 33.4928C170.796 32.8102 170.981 32.2414 171.351 31.7863C171.735 31.317 172.268 30.9686 172.951 30.7411C173.633 30.4993 174.415 30.3785 175.297 30.3785C176.236 30.3785 177.018 30.5136 177.643 30.7837C178.283 31.0539 178.76 31.4379 179.073 31.9356C179.4 32.4333 179.563 33.0306 179.563 33.7274V39.8067C179.563 40.0769 179.627 40.2689 179.755 40.3827C179.883 40.4822 180.04 40.532 180.225 40.532H181.056V41.7692C180.857 41.8545 180.637 41.9256 180.395 41.9825C180.153 42.0536 179.876 42.0891 179.563 42.0891C179.194 42.0891 178.888 42.0109 178.646 41.8545C178.404 41.7123 178.219 41.5132 178.091 41.2572C177.963 40.987 177.878 40.6884 177.835 40.3613H177.686C177.43 40.7168 177.103 41.0297 176.705 41.2999C176.321 41.5559 175.887 41.7549 175.404 41.8972C174.92 42.0394 174.394 42.1105 173.825 42.1105ZM174.295 40.532C174.75 40.532 175.176 40.4609 175.574 40.3187C175.987 40.1765 176.349 39.9774 176.662 39.7214C176.975 39.4512 177.224 39.1312 177.409 38.7615C177.594 38.3918 177.686 37.9865 177.686 37.5456V36.6071C176.534 36.6071 175.553 36.6711 174.742 36.7991C173.932 36.9271 173.306 37.1546 172.865 37.4817C172.439 37.8087 172.225 38.2709 172.225 38.8682C172.225 39.2521 172.311 39.565 172.481 39.8067C172.652 40.0485 172.894 40.2333 173.207 40.3613C173.519 40.4751 173.882 40.532 174.295 40.532ZM183.593 45.7367C183.252 45.7367 182.953 45.7083 182.697 45.6514C182.455 45.6087 182.292 45.5803 182.207 45.5661V44.2009H183.145C183.486 44.2009 183.821 44.1298 184.148 43.9876C184.475 43.8454 184.781 43.6036 185.065 43.2623C185.349 42.921 185.591 42.4518 185.79 41.8545L181.439 30.6344H183.401L185.641 36.4151C185.74 36.6853 185.854 37.0195 185.982 37.4177C186.124 37.8016 186.259 38.1998 186.387 38.6122C186.53 39.0246 186.643 39.3872 186.729 39.7001H186.857C186.914 39.4725 186.985 39.2166 187.07 38.9322C187.155 38.6477 187.241 38.3562 187.326 38.0576C187.426 37.7447 187.518 37.4532 187.603 37.183C187.703 36.8986 187.781 36.6498 187.838 36.4364L189.736 30.6344H191.635L187.838 41.5345C187.625 42.146 187.39 42.7077 187.134 43.2197C186.878 43.7458 186.594 44.1938 186.281 44.5635C185.968 44.9333 185.591 45.2177 185.15 45.4168C184.709 45.6301 184.19 45.7367 183.593 45.7367Z" fill="white"/>
<path d="M83.4184 18.7752C82.4311 18.7752 81.6692 18.5132 81.1329 17.989C80.6027 17.4588 80.3376 16.6391 80.3376 15.5299C80.3376 14.7924 80.4656 14.186 80.7215 13.7107C80.9775 13.2292 81.3493 12.8727 81.8368 12.6411C82.3244 12.4034 82.9095 12.2845 83.5921 12.2845C84.0004 12.2845 84.3844 12.3302 84.7439 12.4217C85.1035 12.5131 85.4204 12.6533 85.6947 12.8422C85.975 13.0311 86.1914 13.2688 86.3438 13.5553C86.5022 13.8356 86.5815 14.1708 86.5815 14.5609H85.201C85.201 14.3719 85.1584 14.2043 85.0731 14.0581C84.9938 13.9118 84.8811 13.7899 84.7348 13.6924C84.5885 13.5949 84.4209 13.5217 84.232 13.473C84.0431 13.4242 83.845 13.3998 83.6378 13.3998C83.3209 13.3998 83.0436 13.4425 82.8059 13.5278C82.5682 13.6071 82.3701 13.732 82.2117 13.9026C82.0593 14.0672 81.9435 14.2744 81.8643 14.5243C81.785 14.7742 81.7454 15.0637 81.7454 15.3928V15.667C81.7454 16.1241 81.8125 16.4989 81.9465 16.7915C82.0806 17.084 82.2817 17.3034 82.5499 17.4497C82.8181 17.5898 83.1502 17.6599 83.5464 17.6599C83.8755 17.6599 84.165 17.6112 84.4148 17.5137C84.6708 17.4101 84.8689 17.2638 85.0091 17.0749C85.1553 16.8859 85.2285 16.6543 85.2285 16.3801V16.3161H83.3544V15.2739H86.5815V18.6655H85.6856L85.5667 17.989C85.3839 18.1658 85.1858 18.312 84.9725 18.4278C84.7653 18.5436 84.5337 18.629 84.2777 18.6838C84.0217 18.7448 83.7353 18.7752 83.4184 18.7752ZM87.8957 18.6655V12.3942H92.9054V13.5095H89.2669V14.9082H92.4849V16.0144H89.2669V17.5411H92.9602V18.6655H87.8957ZM95.681 18.6655V13.537H93.6698V12.3942H99.0726V13.537H97.0523V18.6655H95.681ZM101.787 18.6655V12.3942H103.149V18.6655H101.787ZM106.082 18.6655V13.537H104.07V12.3942H109.473V13.537H107.453V18.6655H106.082ZM115.113 18.7752C114.449 18.7752 113.876 18.6564 113.394 18.4187C112.913 18.181 112.544 17.8214 112.288 17.34C112.032 16.8585 111.904 16.2551 111.904 15.5299C111.904 14.7924 112.032 14.186 112.288 13.7107C112.544 13.2292 112.913 12.8727 113.394 12.6411C113.876 12.4034 114.449 12.2845 115.113 12.2845C115.789 12.2845 116.365 12.4034 116.841 12.6411C117.322 12.8727 117.691 13.2292 117.947 13.7107C118.203 14.186 118.331 14.7924 118.331 15.5299C118.331 16.2551 118.203 16.8585 117.947 17.34C117.691 17.8214 117.322 18.181 116.841 18.4187C116.365 18.6564 115.789 18.7752 115.113 18.7752ZM115.113 17.6599C115.412 17.6599 115.674 17.6173 115.899 17.5319C116.125 17.4466 116.314 17.3186 116.466 17.148C116.618 16.9773 116.734 16.7701 116.813 16.5263C116.893 16.2765 116.932 15.9931 116.932 15.6762V15.3928C116.932 15.0697 116.893 14.7833 116.813 14.5334C116.734 14.2835 116.618 14.0763 116.466 13.9118C116.314 13.7411 116.125 13.6131 115.899 13.5278C115.674 13.4425 115.412 13.3998 115.113 13.3998C114.82 13.3998 114.561 13.4425 114.336 13.5278C114.11 13.6131 113.921 13.7411 113.769 13.9118C113.617 14.0763 113.501 14.2835 113.422 14.5334C113.349 14.7833 113.312 15.0697 113.312 15.3928V15.6762C113.312 15.9931 113.349 16.2765 113.422 16.5263C113.501 16.7701 113.617 16.9773 113.769 17.148C113.921 17.3186 114.11 17.4466 114.336 17.5319C114.561 17.6173 114.82 17.6599 115.113 17.6599ZM119.437 18.6655V12.3942H120.689L123.212 15.7767C123.249 15.8194 123.295 15.8803 123.349 15.9595C123.404 16.0327 123.456 16.1058 123.505 16.179C123.554 16.2521 123.587 16.31 123.605 16.3526H123.651C123.651 16.249 123.651 16.1485 123.651 16.051C123.651 15.9474 123.651 15.8559 123.651 15.7767V12.3942H124.94V18.6655H123.688L121.11 15.2008C121.049 15.1155 120.985 15.021 120.918 14.9174C120.851 14.8138 120.802 14.7345 120.771 14.6797H120.726C120.726 14.7711 120.726 14.8625 120.726 14.9539C120.726 15.0393 120.726 15.1215 120.726 15.2008V18.6655H119.437Z" fill="white"/>
<g clip-path="url(#clip0_88_443)">
<path d="M54.8334 39.14C58.8905 36.9101 61.966 35.2109 62.2311 35.0788C63.0791 34.6274 63.9549 33.4325 62.2311 32.5044C61.6745 32.2125 58.678 30.5662 54.8334 28.4431L49.5038 33.8312L54.8334 39.1399V39.14Z" fill="#FFD900"/>
<path d="M49.5038 33.8313L32.5336 50.9526C32.9319 51.0054 33.3816 50.8996 33.9118 50.6079C35.0249 49.9979 46.8251 43.5471 54.8334 39.1414L49.5038 33.8313Z" fill="#F43249"/>
<path d="M49.5038 33.8313L54.8334 28.4697C54.8334 28.4697 35.1054 17.6921 33.9118 17.0559C33.4621 16.7893 32.9582 16.7101 32.5072 16.7893L49.5038 33.8313Z" fill="#00EE76"/>
<path d="M49.5038 33.8314L32.5072 16.7893C31.8174 16.949 31.2345 17.559 31.2345 18.8067V48.9353C31.2345 50.0772 31.6856 50.8997 32.5336 50.979L49.5038 33.8314Z" fill="#00D3FF"/>
</g>
<rect x="0.5" y="0.5" width="201.644" height="62.2309" rx="11.9518" stroke="#757575"/>
<defs>
<clipPath id="clip0_88_443">
<rect width="31.9964" height="34.2818" fill="white" transform="translate(31.2345 16.76)"/>
</clipPath>
</defs>
</svg>
