<svg width="203" height="64" viewBox="0 0 203 64" fill="none" xmlns="http://www.w3.org/2000/svg">
<path d="M79.5713 41.8545L85.3519 27.2215H88.0183L93.8203 41.8545H91.6232L90.194 38.2282H83.0695L81.6617 41.8545H79.5713ZM83.7308 36.5004H89.5115L87.741 31.9143C87.6983 31.7863 87.6343 31.6085 87.549 31.381C87.4637 31.1535 87.3713 30.9046 87.2717 30.6344C87.1722 30.35 87.0726 30.0656 86.9731 29.7812C86.8735 29.4826 86.7811 29.2124 86.6958 28.9706H86.5678C86.4683 29.255 86.3545 29.5821 86.2265 29.9518C86.0985 30.3216 85.9705 30.6842 85.8425 31.0397C85.7146 31.381 85.6079 31.6725 85.5226 31.9143L83.7308 36.5004ZM95.4338 45.5447V30.6344H96.927L97.1189 32.2343H97.2682C97.6522 31.6085 98.1428 31.1464 98.7401 30.8477C99.3373 30.5349 100.013 30.3785 100.767 30.3785C101.705 30.3785 102.501 30.5847 103.156 30.9971C103.81 31.4095 104.315 32.0565 104.67 32.9382C105.026 33.8056 105.203 34.9362 105.203 36.3298C105.203 37.6381 105.018 38.726 104.649 39.5934C104.293 40.4467 103.788 41.0795 103.134 41.4919C102.48 41.9043 101.719 42.1105 100.852 42.1105C100.368 42.1105 99.9133 42.0536 99.4867 41.9398C99.06 41.8261 98.6761 41.6483 98.3348 41.4065C97.9935 41.1506 97.6949 40.8306 97.4389 40.4467H97.3109V45.5447H95.4338ZM100.255 40.468C100.951 40.468 101.52 40.3329 101.961 40.0627C102.402 39.7783 102.729 39.3446 102.942 38.7615C103.156 38.1642 103.262 37.4034 103.262 36.4791V36.0312C103.262 35.0499 103.148 34.2678 102.921 33.6848C102.693 33.0875 102.359 32.6609 101.918 32.4049C101.492 32.1489 100.958 32.0209 100.319 32.0209C99.6218 32.0209 99.0458 32.1774 98.5908 32.4902C98.1499 32.7889 97.8228 33.2439 97.6095 33.8554C97.4105 34.4669 97.3109 35.2135 97.3109 36.0951V36.4151C97.3109 37.1972 97.382 37.8514 97.5242 38.3776C97.6806 38.8895 97.894 39.3019 98.1641 39.6147C98.4486 39.9276 98.7685 40.148 99.124 40.276C99.4795 40.404 99.8564 40.468 100.255 40.468ZM107.537 45.5447V30.6344H109.03L109.222 32.2343H109.371C109.755 31.6085 110.246 31.1464 110.843 30.8477C111.44 30.5349 112.116 30.3785 112.869 30.3785C113.808 30.3785 114.604 30.5847 115.258 30.9971C115.913 31.4095 116.417 32.0565 116.773 32.9382C117.128 33.8056 117.306 34.9362 117.306 36.3298C117.306 37.6381 117.121 38.726 116.752 39.5934C116.396 40.4467 115.891 41.0795 115.237 41.4919C114.583 41.9043 113.822 42.1105 112.955 42.1105C112.471 42.1105 112.016 42.0536 111.589 41.9398C111.163 41.8261 110.779 41.6483 110.438 41.4065C110.096 41.1506 109.798 40.8306 109.542 40.4467H109.414V45.5447H107.537ZM112.357 40.468C113.054 40.468 113.623 40.3329 114.064 40.0627C114.505 39.7783 114.832 39.3446 115.045 38.7615C115.258 38.1642 115.365 37.4034 115.365 36.4791V36.0312C115.365 35.0499 115.251 34.2678 115.024 33.6848C114.796 33.0875 114.462 32.6609 114.021 32.4049C113.595 32.1489 113.061 32.0209 112.421 32.0209C111.725 32.0209 111.149 32.1774 110.694 32.4902C110.253 32.7889 109.926 33.2439 109.712 33.8554C109.513 34.4669 109.414 35.2135 109.414 36.0951V36.4151C109.414 37.1972 109.485 37.8514 109.627 38.3776C109.783 38.8895 109.997 39.3019 110.267 39.6147C110.551 39.9276 110.871 40.148 111.227 40.276C111.582 40.404 111.959 40.468 112.357 40.468ZM129.835 42.1105C129.039 42.1105 128.271 42.0322 127.531 41.8758C126.806 41.7194 126.159 41.4705 125.59 41.1292C125.022 40.7737 124.566 40.3187 124.225 39.7641C123.898 39.2095 123.735 38.5269 123.735 37.7163C123.735 37.6452 123.735 37.5741 123.735 37.503C123.749 37.4319 123.756 37.3608 123.756 37.2897H125.804C125.804 37.3323 125.797 37.4034 125.782 37.503C125.782 37.5883 125.782 37.6665 125.782 37.7376C125.782 38.3065 125.953 38.79 126.294 39.1881C126.636 39.5863 127.105 39.8849 127.702 40.084C128.314 40.2689 129.003 40.3613 129.771 40.3613C130.113 40.3613 130.468 40.34 130.838 40.2973C131.222 40.2547 131.584 40.1836 131.926 40.084C132.281 39.9703 132.594 39.8281 132.864 39.6574C133.149 39.4725 133.369 39.2521 133.525 38.9962C133.696 38.726 133.781 38.3989 133.781 38.0149C133.781 37.5314 133.639 37.1333 133.355 36.8204C133.085 36.4933 132.722 36.2302 132.267 36.0312C131.812 35.8178 131.293 35.633 130.71 35.4765C130.141 35.3059 129.551 35.1424 128.939 34.9859C128.328 34.8295 127.731 34.6518 127.148 34.4527C126.579 34.2394 126.067 33.9834 125.612 33.6848C125.157 33.3719 124.787 32.9879 124.502 32.5329C124.232 32.0778 124.097 31.5232 124.097 30.8691C124.097 30.2576 124.218 29.7101 124.46 29.2266C124.716 28.7431 125.086 28.3378 125.569 28.0107C126.067 27.6694 126.678 27.4135 127.403 27.2428C128.129 27.058 128.961 26.9655 129.899 26.9655C130.667 26.9655 131.378 27.0508 132.032 27.2215C132.701 27.3779 133.284 27.6268 133.781 27.9681C134.293 28.2951 134.692 28.7147 134.976 29.2266C135.26 29.7385 135.403 30.3571 135.403 31.0824V31.3384H133.397V31.0184C133.397 30.5349 133.248 30.1225 132.95 29.7812C132.651 29.4399 132.238 29.1768 131.712 28.992C131.2 28.8071 130.617 28.7147 129.963 28.7147C129.11 28.7147 128.399 28.8 127.83 28.9706C127.261 29.127 126.835 29.3617 126.55 29.6745C126.28 29.9732 126.145 30.3145 126.145 30.6984C126.145 31.1393 126.28 31.509 126.55 31.8076C126.835 32.1063 127.204 32.3551 127.659 32.5542C128.115 32.7391 128.634 32.9097 129.217 33.0662C129.8 33.2226 130.39 33.3861 130.987 33.5568C131.599 33.7132 132.189 33.8981 132.758 34.1114C133.341 34.3105 133.86 34.5664 134.315 34.8793C134.784 35.1779 135.154 35.5619 135.424 36.0312C135.694 36.4862 135.829 37.0479 135.829 37.7163C135.829 38.7544 135.573 39.6005 135.061 40.2547C134.549 40.8946 133.845 41.3639 132.95 41.6625C132.054 41.9611 131.016 42.1105 129.835 42.1105ZM141.073 42.1105C140.49 42.1105 140.035 42.0038 139.708 41.7905C139.381 41.563 139.147 41.2714 139.004 40.9159C138.862 40.5462 138.791 40.1551 138.791 39.7427V32.2129H137.341V30.6344H138.834L139.175 27.4988H140.668V30.6344H142.78V32.2129H140.668V39.4654C140.668 39.8209 140.732 40.0911 140.86 40.276C140.988 40.4467 141.23 40.532 141.585 40.532H142.78V41.7692C142.638 41.8403 142.467 41.8972 142.268 41.9398C142.069 41.9825 141.863 42.018 141.649 42.0465C141.45 42.0891 141.258 42.1105 141.073 42.1105ZM149.39 42.1105C148.252 42.1105 147.292 41.9043 146.51 41.4919C145.742 41.0652 145.152 40.4182 144.74 39.5508C144.342 38.6833 144.142 37.5812 144.142 36.2445C144.142 34.8935 144.342 33.7914 144.74 32.9382C145.152 32.0707 145.742 31.4308 146.51 31.0184C147.292 30.5918 148.252 30.3785 149.39 30.3785C150.527 30.3785 151.48 30.5918 152.248 31.0184C153.03 31.4308 153.62 32.0707 154.019 32.9382C154.417 33.7914 154.616 34.8935 154.616 36.2445C154.616 37.5812 154.417 38.6833 154.019 39.5508C153.62 40.4182 153.03 41.0652 152.248 41.4919C151.48 41.9043 150.527 42.1105 149.39 42.1105ZM149.39 40.532C150.115 40.532 150.719 40.3898 151.203 40.1054C151.686 39.8209 152.049 39.3801 152.291 38.7828C152.547 38.1714 152.675 37.4034 152.675 36.4791V36.0098C152.675 35.0713 152.547 34.3033 152.291 33.7061C152.049 33.1088 151.686 32.668 151.203 32.3836C150.719 32.0992 150.115 31.9569 149.39 31.9569C148.665 31.9569 148.053 32.0992 147.555 32.3836C147.072 32.668 146.709 33.1088 146.467 33.7061C146.226 34.3033 146.105 35.0713 146.105 36.0098V36.4791C146.105 37.4034 146.226 38.1714 146.467 38.7828C146.709 39.3801 147.072 39.8209 147.555 40.1054C148.053 40.3898 148.665 40.532 149.39 40.532ZM156.948 41.8545V30.6344H158.462L158.633 32.4902H158.782C158.896 32.1347 159.052 31.8005 159.251 31.4877C159.45 31.1606 159.721 30.8975 160.062 30.6984C160.403 30.4851 160.823 30.3785 161.32 30.3785C161.534 30.3785 161.726 30.3998 161.896 30.4425C162.081 30.4709 162.216 30.5064 162.302 30.5491V32.2769H161.598C161.114 32.2769 160.695 32.3622 160.339 32.5329C159.998 32.6893 159.714 32.9168 159.486 33.2155C159.258 33.5141 159.088 33.8696 158.974 34.282C158.875 34.6944 158.825 35.1353 158.825 35.6045V41.8545H156.948ZM168.301 42.1105C167.192 42.1105 166.254 41.9043 165.486 41.4919C164.732 41.0652 164.156 40.4182 163.758 39.5508C163.374 38.6833 163.182 37.5812 163.182 36.2445C163.182 34.8935 163.374 33.7914 163.758 32.9382C164.156 32.0707 164.739 31.4308 165.507 31.0184C166.275 30.5918 167.235 30.3785 168.387 30.3785C169.439 30.3785 170.321 30.5847 171.032 30.9971C171.743 31.3952 172.276 31.9996 172.632 32.8102C173.001 33.6065 173.186 34.6091 173.186 35.8178V36.7137H165.123C165.151 37.6096 165.279 38.3491 165.507 38.9322C165.749 39.501 166.104 39.9205 166.574 40.1907C167.043 40.4467 167.633 40.5746 168.344 40.5746C168.828 40.5746 169.247 40.5178 169.603 40.404C169.972 40.276 170.278 40.0982 170.52 39.8707C170.776 39.6432 170.968 39.373 171.096 39.0601C171.224 38.7473 171.295 38.406 171.309 38.0363H173.143C173.129 38.6335 173.015 39.1881 172.802 39.7001C172.589 40.1978 172.276 40.6244 171.864 40.9799C171.451 41.3354 170.946 41.6127 170.349 41.8118C169.752 42.0109 169.069 42.1105 168.301 42.1105ZM165.166 35.3059H171.245C171.245 34.6802 171.174 34.154 171.032 33.7274C170.889 33.3008 170.683 32.9524 170.413 32.6822C170.157 32.412 169.851 32.22 169.496 32.1063C169.155 31.9783 168.764 31.9143 168.323 31.9143C167.669 31.9143 167.114 32.0352 166.659 32.2769C166.204 32.5187 165.855 32.8884 165.614 33.3861C165.372 33.8838 165.223 34.5238 165.166 35.3059Z" fill="white"/>
<path d="M80.5282 16.3801L82.9417 10.1088H84.6238L87.0372 16.3801H85.5654L85.1174 15.146H82.384L81.9361 16.3801H80.5282ZM82.7771 14.049H84.7243L84.1667 12.504C84.1423 12.437 84.1118 12.3577 84.0752 12.2663C84.0448 12.1688 84.0112 12.0621 83.9747 11.9463C83.9381 11.8305 83.9015 11.7178 83.865 11.6081C83.8345 11.4923 83.804 11.3887 83.7736 11.2973H83.7187C83.6882 11.4131 83.6486 11.5502 83.5999 11.7087C83.5511 11.861 83.5024 12.0103 83.4536 12.1566C83.4048 12.2968 83.3652 12.4126 83.3348 12.504L82.7771 14.049ZM89.1174 16.3801L86.8502 10.1088H88.322L89.675 14.113C89.6994 14.18 89.7268 14.2623 89.7573 14.3598C89.7878 14.4512 89.8183 14.5426 89.8487 14.634C89.8792 14.7255 89.9036 14.8077 89.9219 14.8809H89.9767C90.0011 14.8138 90.0255 14.7376 90.0498 14.6523C90.0803 14.5609 90.1077 14.4695 90.1321 14.3781C90.1626 14.2867 90.19 14.2013 90.2144 14.1221L91.5674 10.1088H92.9844L90.7081 16.3801H89.1174ZM92.7947 16.3801L95.2081 10.1088H96.8902L99.3037 16.3801H97.8318L97.3839 15.146H94.6505L94.2025 16.3801H92.7947ZM95.0436 14.049H96.9908L96.4331 12.504C96.4087 12.437 96.3783 12.3577 96.3417 12.2663C96.3112 12.1688 96.2777 12.0621 96.2411 11.9463C96.2046 11.8305 96.168 11.7178 96.1314 11.6081C96.101 11.4923 96.0705 11.3887 96.04 11.2973H95.9852C95.9547 11.4131 95.9151 11.5502 95.8663 11.7087C95.8176 11.861 95.7688 12.0103 95.7201 12.1566C95.6713 12.2968 95.6317 12.4126 95.6012 12.504L95.0436 14.049ZM100.05 16.3801V10.1088H101.412V16.3801H100.05ZM102.8 16.3801V10.1088H104.162V15.2191H107.325V16.3801H102.8ZM107.561 16.3801L109.974 10.1088H111.656L114.07 16.3801H112.598L112.15 15.146H109.417L108.969 16.3801H107.561ZM109.81 14.049H111.757L111.199 12.504C111.175 12.437 111.144 12.3577 111.108 12.2663C111.077 12.1688 111.044 12.0621 111.007 11.9463C110.971 11.8305 110.934 11.7178 110.898 11.6081C110.867 11.4923 110.837 11.3887 110.806 11.2973H110.751C110.721 11.4131 110.681 11.5502 110.633 11.7087C110.584 11.861 110.535 12.0103 110.486 12.1566C110.437 12.2968 110.398 12.4126 110.367 12.504L109.81 14.049ZM114.816 16.3801V10.1088H118.4C118.729 10.1088 119.024 10.1728 119.286 10.3008C119.555 10.4288 119.765 10.6086 119.917 10.8402C120.07 11.0718 120.146 11.343 120.146 11.6538C120.146 11.9037 120.1 12.1261 120.009 12.3212C119.917 12.5162 119.792 12.6777 119.634 12.8057C119.481 12.9337 119.308 13.0281 119.113 13.0891V13.1256C119.344 13.1744 119.549 13.2658 119.725 13.3999C119.908 13.534 120.051 13.7077 120.155 13.921C120.265 14.1282 120.319 14.375 120.319 14.6615C120.319 15.0393 120.231 15.3562 120.054 15.6122C119.884 15.8682 119.655 16.0602 119.369 16.1881C119.082 16.3161 118.762 16.3801 118.409 16.3801H114.816ZM116.178 15.2648H118.144C118.369 15.2648 118.552 15.2008 118.692 15.0728C118.839 14.9449 118.912 14.7468 118.912 14.4786C118.912 14.3202 118.881 14.183 118.82 14.0672C118.759 13.9515 118.668 13.8631 118.546 13.8021C118.424 13.7351 118.269 13.7016 118.08 13.7016H116.178V15.2648ZM116.178 12.6411H117.988C118.153 12.6411 118.29 12.6107 118.4 12.5497C118.515 12.4827 118.601 12.3973 118.656 12.2937C118.717 12.184 118.747 12.0591 118.747 11.9189C118.747 11.6812 118.68 11.5014 118.546 11.3796C118.418 11.2577 118.247 11.1967 118.034 11.1967H116.178V12.6411ZM121.414 16.3801V10.1088H122.776V15.2191H125.939V16.3801H121.414ZM126.815 16.3801V10.1088H131.824V11.2241H128.186V12.6228H131.404V13.729H128.186V15.2557H131.879V16.3801H126.815ZM137.775 16.4898C137.111 16.4898 136.538 16.371 136.056 16.1333C135.575 15.8956 135.206 15.536 134.95 15.0546C134.694 14.5731 134.566 13.9697 134.566 13.2445C134.566 12.507 134.694 11.9006 134.95 11.4253C135.206 10.9438 135.575 10.5873 136.056 10.3557C136.538 10.118 137.111 9.99914 137.775 9.99914C138.451 9.99914 139.027 10.118 139.503 10.3557C139.984 10.5873 140.353 10.9438 140.609 11.4253C140.865 11.9006 140.993 12.507 140.993 13.2445C140.993 13.9697 140.865 14.5731 140.609 15.0546C140.353 15.536 139.984 15.8956 139.503 16.1333C139.027 16.371 138.451 16.4898 137.775 16.4898ZM137.775 15.3745C138.074 15.3745 138.336 15.3319 138.561 15.2465C138.787 15.1612 138.976 15.0332 139.128 14.8626C139.28 14.6919 139.396 14.4847 139.475 14.2409C139.555 13.9911 139.594 13.7077 139.594 13.3908V13.1074C139.594 12.7843 139.555 12.4979 139.475 12.248C139.396 11.9981 139.28 11.7909 139.128 11.6264C138.976 11.4557 138.787 11.3277 138.561 11.2424C138.336 11.1571 138.074 11.1144 137.775 11.1144C137.482 11.1144 137.223 11.1571 136.998 11.2424C136.772 11.3277 136.583 11.4557 136.431 11.6264C136.279 11.7909 136.163 11.9981 136.084 12.248C136.011 12.4979 135.974 12.7843 135.974 13.1074V13.3908C135.974 13.7077 136.011 13.9911 136.084 14.2409C136.163 14.4847 136.279 14.6919 136.431 14.8626C136.583 15.0332 136.772 15.1612 136.998 15.2465C137.223 15.3319 137.482 15.3745 137.775 15.3745ZM142.099 16.3801V10.1088H143.351L145.874 13.4913C145.911 13.534 145.957 13.5949 146.011 13.6741C146.066 13.7473 146.118 13.8204 146.167 13.8936C146.216 13.9667 146.249 14.0246 146.267 14.0672H146.313C146.313 13.9636 146.313 13.8631 146.313 13.7656C146.313 13.662 146.313 13.5705 146.313 13.4913V10.1088H147.602V16.3801H146.35L143.772 12.9154C143.711 12.8301 143.647 12.7356 143.58 12.632C143.513 12.5284 143.464 12.4491 143.433 12.3943H143.388C143.388 12.4857 143.388 12.5771 143.388 12.6685C143.388 12.7539 143.388 12.8361 143.388 12.9154V16.3801H142.099ZM152.33 16.3801V11.2516H150.319V10.1088H155.722V11.2516H153.701V16.3801H152.33ZM156.642 16.3801V10.1088H158.004V12.5954H160.783V10.1088H162.145V16.3801H160.783V13.7473H158.004V16.3801H156.642ZM163.534 16.3801V10.1088H168.543V11.2241H164.905V12.6228H168.123V13.729H164.905V15.2557H168.598V16.3801H163.534Z" fill="white"/>
<path d="M53.1622 44.4294C51.4202 46.1181 49.5182 45.8515 47.6873 45.0516C45.7497 44.2339 43.9721 44.1983 41.9279 45.0516C39.3682 46.1536 38.0173 45.8337 36.4886 44.4294C27.814 35.4882 29.0938 21.872 38.9416 21.3742C41.3413 21.4987 43.0123 22.6896 44.4165 22.7963C46.5141 22.3697 48.5227 21.1432 50.7625 21.3031C53.4466 21.5164 55.4731 22.583 56.8062 24.5028C51.2602 27.8268 52.5756 35.1327 57.6595 37.1769C56.6463 39.8433 55.3309 42.4918 53.1444 44.4472L53.1622 44.4294ZM44.2388 21.2676C43.9721 17.3036 47.1896 14.0329 50.8869 13.7129C51.4024 18.299 46.7274 21.712 44.2388 21.2676Z" fill="white"/>
<rect x="0.5" y="0.5" width="201.644" height="62.2309" rx="11.9518" stroke="#757575"/>
</svg>
